<?xml version="1.0" encoding="UTF-8"?> <svg xmlns="http://www.w3.org/2000/svg" xmlns:xlink="http://www.w3.org/1999/xlink" viewBox="0 0 1250 250"><defs><style> .cls-1 { fill: #7ab5d3; } .cls-2 { fill: url(#New_Gradient_Swatch_1-2); } .cls-3 { fill: url(#linear-gradient-2); } .cls-4 { fill: url(#linear-gradient); } .cls-5 { isolation: isolate; } .cls-6 { fill: #8cd2f4; } .cls-7 { fill: #626366; } .cls-8 { fill: #fff; } .cls-9 { fill: #bbbdbf; mix-blend-mode: multiply; } .cls-10 { fill: url(#New_Gradient_Swatch_1); } </style><linearGradient id="linear-gradient" x1="119.6" y1="172.73" x2="242.29" y2="50.03" gradientUnits="userSpaceOnUse"><stop offset="0" stop-color="#999a9e"></stop><stop offset=".18" stop-color="#f2f3f3"></stop><stop offset=".21" stop-color="#e6e7e8"></stop><stop offset=".27" stop-color="#c8c9ca"></stop><stop offset=".36" stop-color="#97989b"></stop><stop offset=".41" stop-color="#75767a"></stop><stop offset=".46" stop-color="#717275"></stop><stop offset=".53" stop-color="#656668"></stop><stop offset=".53" stop-color="#646566"></stop><stop offset=".56" stop-color="#666768"></stop><stop offset=".58" stop-color="#6e6f71"></stop><stop offset=".6" stop-color="#7c7d80"></stop><stop offset=".6" stop-color="#808184"></stop><stop offset=".61" stop-color="#88898b"></stop><stop offset=".63" stop-color="#9e9fa1"></stop><stop offset=".65" stop-color="#c2c2c4"></stop><stop offset=".67" stop-color="#f4f4f4"></stop><stop offset=".67" stop-color="#fff"></stop><stop offset=".71" stop-color="#dbdcdd"></stop><stop offset=".77" stop-color="#e9e8e9"></stop><stop offset=".87" stop-color="#bbbdbf"></stop><stop offset="1" stop-color="#808184"></stop></linearGradient><linearGradient id="New_Gradient_Swatch_1" data-name="New Gradient Swatch 1" x1="120.33" y1="172.22" x2="241.64" y2="50.91" gradientUnits="userSpaceOnUse"><stop offset="0" stop-color="#808184"></stop><stop offset=".13" stop-color="#bbbdbf"></stop><stop offset=".23" stop-color="#e9e8e9"></stop><stop offset=".29" stop-color="#dbdcdd"></stop><stop offset=".33" stop-color="#fff"></stop><stop offset=".33" stop-color="#f4f4f4"></stop><stop offset=".35" stop-color="#c2c2c4"></stop><stop offset=".37" stop-color="#9e9fa1"></stop><stop offset=".39" stop-color="#88898b"></stop><stop offset=".4" stop-color="#808184"></stop><stop offset=".4" stop-color="#7c7d80"></stop><stop offset=".42" stop-color="#6e6f71"></stop><stop offset=".44" stop-color="#666768"></stop><stop offset=".47" stop-color="#646566"></stop><stop offset=".47" stop-color="#656668"></stop><stop offset=".54" stop-color="#717275"></stop><stop offset=".59" stop-color="#75767a"></stop><stop offset=".64" stop-color="#97989b"></stop><stop offset=".73" stop-color="#c8c9ca"></stop><stop offset=".79" stop-color="#e6e7e8"></stop><stop offset=".82" stop-color="#f2f3f3"></stop><stop offset="1" stop-color="#999a9e"></stop></linearGradient><linearGradient id="linear-gradient-2" x1="44.19" y1="162.36" x2="153.39" y2="53.17" xlink:href="#linear-gradient"></linearGradient><linearGradient id="New_Gradient_Swatch_1-2" data-name="New Gradient Swatch 1" x1="45.11" y1="161.21" x2="152.73" y2="53.59" xlink:href="#New_Gradient_Swatch_1"></linearGradient></defs><g class="cls-5"><g id="Layer_1" data-name="Layer 1"><g><g><path id="Path_1" data-name="Path 1" class="cls-8" d="M429.58,90.94c.65,1.08,1.3,1.94,1.94,2.81,0-.22.22-.65.43-.86-.65-.65-1.08-1.51-1.51-2.38l-.86.43Z"></path><path id="Path_2" data-name="Path 2" class="cls-8" d="M450.1,81.87c-.22-2.59-.22-4.97-.22-7.56l-.65-1.3c-.65-1.08-.86-2.16-.65-3.24-.43-1.73-1.73-4.75-1.94-6.05v.22-.43.22c.22-.43.22-.65,0-.43-.43-.65-.86-1.08-1.08-1.73.43-.43.65-.86.86-1.3-.22-1.08-.65-2.16-1.08-3.24-1.08-1.08-2.59-1.73-3.67-2.59-.65-.86-1.94-2.16-3.24-3.46-.43-.43.22-.65.86-.86-1.3-.65-2.59-1.08-4.1-1.51-2.59-.65-5.4-.43-7.78.65-2.81,1.51-5.4,3.67-7.34,6.26l-.65.86c.22.43.43.86,0,1.3-.65.86-1.3,1.51-1.94,2.38-.65,1.51-1.3,3.24-1.73,4.97-.43,2.59-.43,5.18,0,7.78.22,1.94-.43,3.46-.22,5.18.43-.22.43.22,0,0,.86,7.56,2.38,15.12,7.99,21.82,2.59,3.02,6.26,4.75,10.37,4.54,4.1-.43,7.78-2.59,10.15-5.83l.43-.65c1.3-1.94,2.16-4.1,2.81-6.48.22-.65.22-1.3.22-1.73.22,0,.43.22.65.43l.43-1.3c0-.65-.86-1.3.43-1.73.22-.65.22-1.08.43-1.73-.22-.65-.65-1.3-1.3-1.73l.86.22c.65-.43.22-1.3.22-1.73.43-.22.65-.22.86-.22M441.46,77.12c.22,1.3.43,1.94,0,1.94v1.08h0c0,2.16-.22,4.1-.86,6.05,0,.43-.22.65-.43,1.08-.43,1.94-.43,5.83-3.46,6.05l-.43.43c-.65.65-1.73,1.08-2.81,1.08-.65,0-.86-.22-1.73-1.08-.43.22-1.08.43-1.08.22-.43-.65-.86-1.51-1.08-2.38-.43-1.3-.86-2.59-1.3-3.89l-.22-.43c-.43-.43-2.59-1.08-2.59-2.16-1.3-1.08-.65-1.08-1.3-3.89-1.08-.86,0-1.51-.65-2.16,0-2.16-2.16-4.75-1.73-6.91.65-3.67,2.16-6.91,4.1-10.15,1.73-2.59,4.54-4.54,4.97-4.1-.22-.43-.43-.22-.65-.22-.22-.65.22-.86.43-.65.22,0,.43.65.65.65.86.43,1.73,1.08,2.59,1.73h0c.43.43.65.65,1.08,1.08-.65-.22-1.08-.43-1.51-.43.65.65,1.51,1.3,1.94,1.94l-.22-.43s0-.22.43-.22l.43.65,1.73,2.16c0,.22.86,1.94,1.3,2.81.43.65,1.08,1.08,1.51,1.73-.22-.22-.65-.43-.86-.43.43,1.3,1.08,3.89,1.08,4.1.22.22.86,0,1.08.22-.22.22-.65.43-.86.65.43,1.51.43,2.59.43,3.89"></path><path id="Path_3" data-name="Path 3" class="cls-8" d="M530.68,106.5h0c.22-1.51.65-3.02,1.3-4.54l-.22.22c-.86,1.3-1.3,2.81-1.08,4.32"></path><path id="Path_4" data-name="Path 4" class="cls-8" d="M547.32,93.53c-3.89-4.75-10.8-5.4-15.55-1.51-.22.22-.65.43-.86.86l-.43.43c-1.3,1.3-2.38,2.81-3.24,4.54-.22.43-.43.86-.43,1.3-.22,0-.43-.22-.43-.43l-.43.86c0,.43.43,1.08-.65,1.3-.22.43-.43.86-.43,1.3s.43,1.08.86,1.3l-.65-.22c-.65.43-.22.86-.43,1.3h-.43c-.22,1.94-.43,3.89-.86,5.62l.43.86c.43.86.43,1.73.22,2.59.22,1.3,1.08,3.67,1.08,4.75v-.22.43-.22c-.22.43-.22.65,0,.43.22.43.65.86.86,1.3-.22.22-.43.43-.65.86.22.86.43,1.73.86,2.38.86.86,1.94,1.3,2.81,1.94.43.65,1.3,1.73,2.16,2.59.22.43-.22.43-.86.65.86.43,1.94.86,3.02,1.3,2.16.65,4.54.43,6.48-.22,2.38-1.08,4.32-2.59,6.05-4.54l.43-.65c0-.22-.22-.65.22-.86.65-.65,1.08-1.08,1.73-1.73.65-1.08,1.3-2.38,1.73-3.67.65-1.73,1.3-3.67,1.51-5.62,0-.86.43-1.08.43-2.16.43.22.43-.43.86-.22.22-5.83-1.51-11.88-5.4-16.63M546.02,112.11c-1.08,2.81-2.59,5.18-4.32,7.56-1.51,1.94-4.1,3.46-4.32,3.24,0,.43.22.22.43.22.22.43,0,.65-.22.43s-.22-.43-.43-.43c-.86-.43-1.51-.86-2.16-1.51,0,.22-.22.43-.22.86,0-.22,0-.43.22-.86h0c-.22-.22-.65-.65-.86-.86.43.22.86.22,1.3.43-.65-.43-1.08-1.08-1.51-1.51v.43l-.22.22-.43-.43c-.65-.65-1.51-1.08-2.38-1.51.43-.22,1.08,0,1.08-.22s-.65-1.51-.86-2.16c-.22-.43-1.08-1.08-1.08-1.3.22.22.43.43.65.43-.22-1.08-.43-1.94-.65-3.02,0-.22-.65,0-.65-.22.22-.22.43-.22.65-.43v-2.59c-.86-.43,0-1.51.22-1.51l.22-.86h0c-.22-1.73.22-3.24,1.51-4.54.22-.22.22-.43.43-.65.43-1.3,1.08-4.32,3.67-4.32q.22-.22.43-.22c2.16-1.08,2.59-.65,4.1.86.43-.22.86-.22.86-.22.43.65.65,1.3.86,1.94.43.86.65,1.94.86,3.02v.43c.43.22.22.86.22,1.73,1.08.86.86,2.38,1.94,3.46.43.43.86.65,1.3.86.22.86-.22,2.16-.65,3.24"></path><path id="Path_5" data-name="Path 5" class="cls-8" d="M584.91,123.35c.43-1.08.65-2.38.65-3.67-.22.22-.43.43-.65.43h0c-1.51,2.38-3.02,4.54-4.75,6.48l-.65,1.08c-.43,1.3-1.08,2.38-1.94,3.46.22-.86.65-1.94,1.08-3.02-.65,1.3-1.08,2.38-1.73,3.67-.65.86-1.08,1.51-1.73,2.16.22-.86.65-1.73.86-2.59l-1.3,3.24-.22.22c0-.43.22-.65.22-1.08-.22.43-.22.86-.22,1.3-.86,1.3-1.51,2.59-2.16,3.89-3.46,8.64-7.78,18.36-10.8,27.65-1.51,4.32-2.81,11.88-4.32,16.42-.22.86-.65-1.3-1.08-.22-.86-1.73-1.51-3.46-2.16-4.97h0v-.22l-2.16-4.75c1.08,1.3,1.94,2.81,2.81,4.32-.65-1.51-3.46-7.34-4.1-8.64l.43,1.51c.22.22,0,.22-.43,0l-1.08-2.16c-1.3-2.59-2.81-4.97-4.54-7.34.65-.22,1.3.65.86.22-.22-.43-2.38-5.62-3.46-7.78-.65-1.3-2.81-4.32-3.02-4.75.43.65.86,1.08,1.51,1.51-.86-1.73-1.94-4.1-3.02-6.48-.22-.65-.65-1.08-.86-1.73-.22-.43-.65-.86-.86-1.3-1.51-1.94-4.32-2.16-6.26-.65h0c-1.08,1.08-.86,1.08-.86,1.08l-.43.43c-.65,1.08-.65,1.51-.86,1.51-.22.43,0,.65.22.65,0,.22-.22.65-.22.86-.43.22-1.08.86-1.08.86,0,0-2.59,5.83-3.89,8.64.43,1.94-1.94,4.97-2.16,4.97l-1.08,2.38h0c-1.51,5.4-3.89,10.59-6.91,15.34l-1.51,3.02c-.65,1.51-1.3.86-1.94,2.81v-1.3l-.65-.86c-1.73-6.05-2.81-9.51-4.32-15.77-.22-1.3-1.73-5.18-2.38-7.78-.65-.43-1.3-1.08-1.73-1.94-.22-1.08-.65-2.38-.86-3.46,0-.22,0-.43.22-.65-.86-3.46-1.94-7.13-2.81-10.59h-.22c-.65-2.16-1.3-4.32-1.94-6.48v-.22c.65-4.75,1.3-8.86,1.73-11.23,1.3-7.99,2.81-15.77,4.54-23.76-.65,1.3-1.51,2.38-2.38,3.67.65-1.51.86-3.02,1.08-4.75-.22.22-.65.43-1.08.65h0c-.22,1.3-.65,2.16-1.73,1.73-.43-.22.86-1.51,0-1.73v-.65l.43-4.1c-.43,2.16-.86,4.32-1.3,6.48l.43-6.05c-.43-.43-1.08,1.73-1.51,4.75l-.22.22c.22-.65.22-1.3.22-1.94-.65-.65-.86,1.08-1.08,3.24-.22.43-.43.65-.65,1.08-1.94,6.48-3.24,14.26-4.97,20.95-1.73-2.59-3.89-4.75-6.48-6.48-5.18-2.38-6.7,1.08-9.94,1.94-.22-.22-.65-.43-.86-.43.22.22.43.43.65.65h0c5.18,4.97,9.29,10.8,12.31,17.28.22.22.22.65.43.86-2.16,7.99-3.67,15.55-6.48,24.41-.65,2.38-1.51,4.75-2.38,7.13-.22,1.08-.65,1.94-1.3,3.02.43-1.3.65-2.59.86-3.67l.22-.43c2.16-4.75,3.46-9.72,4.32-14.91h0c-1.51,4.97-2.81,9.72-4.32,14.69v-.22l-2.59,5.83c-.22.43-.22.65-.43,1.08-1.3.86-2.81.43-4.1-1.08-1.08-2.38-1.94-4.75-3.02-6.91h0l-4.97-10.37c-2.16-3.67-3.89-7.34-5.62-11.23-1.73-2.81-3.02-5.62-4.32-8.64-.65-1.08-1.08-2.16-1.51-3.24-.22-.22-.86-1.08-.65-1.08-.43-1.08-1.3-2.59-1.94-3.89-.43-.86-.65-1.51-1.3-2.38-.22-.22-.22-.43-.43-.65v-1.08s-.22-.22-.22-.22l-.22-.22c-.43-.65-.86-1.3-1.51-1.73-2.59-2.16-6.26-2.38-8.86-.22-3.02,3.24-1.73,2.16-2.16,2.59-.22.22-.22.65-.43.86-1.3,3.24-2.16,5.4-2.38,5.62-.43,1.08,1.08.65.86,1.73-.86.43-1.51.86-2.16,1.3v.22c.22-.65.43-1.3.43-2.16h0c-.65,1.73-1.08,3.46-1.73,5.18-.86,2.59-2.38,6.26-3.24,8.43.86,2.16-1.3,5.4-2.38,6.26.43-1.73.86-3.24,1.08-4.97h0c-.65,2.16-1.51,4.32-2.16,6.48l-.86,2.16v.22c0,.65-.22,1.3-.43,1.94-.43,1.73-1.08,3.24-1.51,4.97-.22,0-.22-.22-.22-.22-1.94,3.89-3.67,7.34-5.83,11.23.43-.43.86-.65,1.3-1.08-2.16,4.1-4.1,6.91-4.1,6.91,0,.22-.22.22-.22.43,2.16-3.67,1.94-3.89-.22-.65-3.67-12.75-7.56-27-10.8-39.97-.86-.65.22-1.73,0-2.59-.86-3.89-3.89-7.56-4.75-11.45-1.3-5.62-2.59-11.02-4.1-16.63l-.65-1.94c-1.3-1.73-1.51-5.18-2.38-8.64-3.02-4.32-4.97-11.88-8.43-15.55-5.83-5.4-10.15-1.51-15.77-3.02,1.94,5.4,6.7,11.45,8.21,16.2,1.08,3.02,2.81,4.75,3.67,7.56,1.94,5.62,6.91,20.31,8.64,25.49,2.16,6.7,3.02,7.34,4.97,13.83,1.08,3.24,2.38,9.29,3.46,12.53,1.3,4.54,1.08,3.67,2.38,7.99,1.51,6.48,3.24,12.96,5.62,19.23,2.38,5.83,4.32,11.45,5.18,13.39,3.02,5.62,6.7,6.05,8.86,4.32s3.89-7.13,5.62-10.37c.65-1.51,1.3-3.24,1.94-4.97l1.51-2.38c.65-1.73,1.51-3.46,2.59-4.97l2.81-4.54c.22-1.94,1.3-2.59,1.51-4.1v-.65c.86-2.38.86-2.81,1.51-4.54.22,0,9.07-18.36,9.94-20.31,0-.43,2.38-7.56,2.38-7.56,0,0,4.32,9.07,4.32,8.86l.65,2.59c.86,1.51,1.51,3.02,1.94,4.54-.65.22.22.86.22,1.08.86,2.81,5.62,9.94,6.7,12.75,1.94,3.02.86,2.81,2.59,5.83,1.08,2.16,2.16,4.54,2.81,6.91.22,1.3,1.94,3.02.86,2.81.22.43,1.94,6.91,2.38,7.99,1.73,3.02.65,1.73,2.16,4.54.65,1.08,1.08,2.81,1.94,4.32.65.86.86,1.73,1.94,3.24l.43.65c.22.22-.43-.22.86.86.86.86,0,1.08,1.08,1.51h.22c1.73-.43,3.46-1.3,4.54-2.81l.65-.86.22-.22.22-.43c.43-.65.65-1.51.86-2.16,2.16-8.21,2.38-12.96,4.54-19.01l.86-3.24c.43-2.16.86-4.1,1.51-6.05,1.08-2.81,1.51-4.97,2.59-7.34.65-2.16,1.08-4.32,1.73-6.48.22,1.08.65,1.94.86,2.81,1.73,5.62,3.46,11.45,5.18,17.28,1.3,4.1,2.81,11.23,3.02,12.75.65,2.59,1.3,5.62,2.16,7.99l.65,2.59c.43.86,1.3.86,2.16,1.94.43.22-.43.22,2.16,1.51,2.59.65,2.38,0,3.46-.22,1.73-1.08,1.08-1.08,1.51-1.3.22-.43.65-.86.86-1.3.86-1.3,1.3-2.38,1.94-3.46,1.08-2.16,2.16-5.62,3.02-7.99.43-1.08.86-1.3,1.51-2.59.22.22.43-.86.65-.22l1.3-2.59c.22-1.3.86-2.38,1.51-3.46l1.73-3.67c.22-1.51,1.08-1.73.86-2.81,1.08-1.08,1.08-2.16,1.51-3.46.22,0,.43-.43.65-.43,1.73-4.75,3.89-9.29,6.48-13.61,1.3,3.67,2.59,4.54,3.02,6.26,0-.22-.43-.43-.43-.86.22.43.22.86.65,1.08,0,.86.22,1.08.22.86.43,1.3,1.08,2.59,1.3,3.89v1.73c.65,2.16,1.73,4.1,2.59,6.26,1.51,2.38,2.59,5.62,3.89,7.78,1.08,2.16,1.94,4.32,2.81,6.7.43,1.73,1.08,3.24,1.94,4.75.22.22.86,1.51,2.16,3.46.43.43.65,1.08,1.51,1.94l.86.86c.65.43,1.08.86,1.94,1.08,1.08.43,2.38.65,3.46.22.86-.22,1.73-.65,2.38-1.3l.43-.43c.22-.22.43-.43.65-.86.22-.22.22-.65.43-.86.65-1.08,1.08-2.16,1.51-3.24,1.51-5.62,3.02-12.1,4.54-16.63l.43-1.94c-.43-.65-.43-1.51,0-2.16.86-2.16,1.51-4.1,2.16-5.83,1.08-3.67,1.94-7.34,2.81-11.23,1.51-5.83,5.18-13.61,6.05-16.85,1.51-5.83,5.18-11.02,6.48-16.85-.65.65-1.08,1.73-1.73,2.59M494.61,98.72v1.94h0c-.22-.22-.22-.65-.22-1.08l.22-.86ZM528.31,143.87q-.22,0,0,0v-.43.43"></path><path id="Path_7" data-name="Path 7" class="cls-8" d="M490.29,109.74c-.22,2.16-.86,4.1-1.94,6.05-.22,1.3-.43,2.38-.65,3.67.65-.86,1.08-1.94,1.51-2.81.22-2.38.65-4.54,1.08-6.91"></path><path id="Path_8" data-name="Path 8" class="cls-8" d="M616.88,118.59h6.05l14.69,40.4,16.63-41.69,17.71,42.13,15.55-40.83h4.54l-20.74,53.79-17.71-42.34-16.85,42.56-19.87-54.01Z"></path><path id="Path_9" data-name="Path 9" class="cls-8" d="M707.61,171.3c-11.02,0-18.15-7.34-18.15-18.15.22-9.94,8.43-17.93,18.36-17.93,9.94.22,17.71,7.99,17.93,17.93.43,9.51-6.91,17.5-16.42,17.93-.86.22-1.3.22-1.73.22M707.61,138.68c-7.99,0-12.31,6.7-12.31,14.69s4.32,14.91,12.31,14.91c7.56,0,12.31-6.7,12.31-14.91-.22-8.21-4.54-14.69-12.31-14.69"></path><path id="Path_10" data-name="Path 10" class="cls-8" d="M756.87,170.66v-22.9c0-6.26-3.46-9.07-7.99-9.07-5.62,0-10.15,4.54-10.15,10.15v21.6h-5.62v-34.13h5.62v4.97c2.59-3.67,6.7-6.05,11.23-5.83,8.86,0,12.53,5.83,12.53,12.75v22.68l-5.62-.22Z"></path><path id="Path_11" data-name="Path 11" class="cls-8" d="M786.25,135.44c5.18-.22,9.94,2.38,12.53,6.91v-27h5.62v55.09h-5.62v-6.26c-2.59,4.54-7.56,7.13-12.75,7.13-9.51,0-16.63-7.56-16.63-18.36,0-9.94,7.13-17.5,16.85-17.5M787.11,168.06c7.34,0,11.88-6.26,11.88-14.69s-4.1-14.91-11.88-14.91-11.88,6.7-11.88,14.69c-.22,8.43,3.89,14.91,11.88,14.91"></path><path id="Path_12" data-name="Path 12" class="cls-8" d="M817.35,153.59c0,7.78,4.54,14.69,12.31,14.69,4.97.22,9.72-2.38,12.31-6.48l2.16,1.73c-3.24,5.18-8.86,7.99-14.91,7.78-10.37,0-17.5-7.34-17.5-17.93-.43-9.51,6.91-17.5,16.42-17.93h.86c9.51,0,16.85,7.13,16.85,18.15h-28.52ZM829.23,138.47c-6.7,0-11.02,6.05-11.45,11.88h22.9c-.65-6.91-4.97-11.88-11.45-11.88"></path><path id="Path_13" data-name="Path 13" class="cls-8" d="M868.34,139.98c-4.97,0-8.64,3.89-8.64,9.51v20.95h-5.62v-34.13h5.62v5.83c1.94-3.89,5.83-6.05,10.15-6.05,1.08,0,2.38.22,3.46.86l-1.08,4.1c-1.08-.86-2.59-1.08-3.89-1.08"></path><path id="Path_14" data-name="Path 14" class="cls-8" d="M877.84,144.52c0-5.18,4.75-9.29,11.02-9.29,3.67,0,7.34,1.73,9.94,4.32l-1.73,2.16c-2.16-2.16-4.97-3.24-7.78-3.24-4.1,0-6.48,2.38-6.48,5.62,0,7.99,18.15,4.32,18.15,17.07,0,6.26-4.54,10.37-12.96,10.37-4.54,0-8.64-1.94-11.23-5.62l1.94-1.94c2.38,2.81,5.62,4.32,9.29,4.32,5.83,0,8.21-2.81,8.21-6.48-.43-8.64-18.36-4.75-18.36-17.28"></path><path id="Path_15" data-name="Path 15" class="cls-8" d="M959.72,170.87l-6.7-7.56c-4.1,4.97-10.15,7.99-16.63,8.21-9.51,0-17.07-6.48-17.07-14.91,0-8.86,7.56-13.39,13.61-16.2-4.54-5.4-6.48-8.21-6.48-11.88,0-6.26,5.62-10.8,12.75-10.8s11.02,4.32,11.02,9.72c0,5.83-4.75,9.94-10.15,12.96l14.47,15.99c2.16-3.02,3.67-6.48,4.75-9.94l3.24.86c-1.3,4.1-3.24,8.21-5.62,11.88l10.59,11.88h-7.78v-.22ZM935.31,143c-5.18,3.02-9.72,7.13-9.72,13.39s4.97,11.23,11.02,11.45h.65c5.4,0,9.72-3.46,13.39-7.34-4.97-5.83-10.37-11.67-15.34-17.5M938.76,120.97c-3.46-.22-6.48,2.38-6.7,5.83v.86c0,4.75,3.46,7.34,6.05,10.37,4.32-2.59,7.56-5.4,7.56-10.37.22-3.46-2.38-6.48-6.05-6.7-.22-.22-.43-.22-.86,0"></path><path id="Path_16" data-name="Path 16" class="cls-8" d="M980.89,118.59h6.05l14.69,40.4,16.63-41.69,17.71,42.13,15.55-40.83h4.54l-20.74,53.79-17.71-42.56-16.85,42.56-19.87-53.79Z"></path><path id="Path_17" data-name="Path 17" class="cls-8" d="M1071.62,171.3c-11.02,0-18.15-7.34-18.15-18.15,0-9.94,8.21-18.15,18.15-18.15s18.15,8.21,18.15,18.15c.43,9.51-6.91,17.5-16.42,17.93-.65.22-1.08.22-1.73.22M1071.62,138.68c-7.99,0-12.31,6.7-12.31,14.69s4.32,14.91,12.31,14.91c7.56,0,12.31-6.7,12.31-14.91s-4.54-14.69-12.31-14.69"></path><path id="Path_18" data-name="Path 18" class="cls-8" d="M1111.37,139.98c-4.97,0-8.64,3.89-8.64,9.51v20.95h-5.62v-34.13h5.62v5.83c1.94-3.89,5.83-6.05,10.15-6.05,1.08,0,2.38.22,3.46.86l-1.08,4.1c-1.3-.86-2.59-1.08-3.89-1.08"></path><path id="Path_19" data-name="Path 19" class="cls-8" d="M1136.86,139.98c-4.97,0-8.64,3.89-8.64,9.51v20.95h-5.62v-34.13h5.62v5.83c1.94-3.89,5.83-6.05,10.15-6.05,1.08,0,2.38.22,3.46.86l-.86,4.1c-1.3-.86-2.59-1.08-4.1-1.08"></path><path id="Path_20" data-name="Path 20" class="cls-8" d="M1151.33,128.75c-1.94,0-3.67-1.51-3.67-3.46s1.51-3.67,3.46-3.67h.22c1.94,0,3.67,1.51,3.67,3.46s-1.51,3.46-3.67,3.67c.22,0,0,0,0,0M1148.31,136.31h5.62v34.35h-5.62v-34.35Z"></path><path id="Path_21" data-name="Path 21" class="cls-8" d="M1167.1,153.59c0,7.78,4.54,14.69,12.31,14.69,4.97.22,9.72-2.38,12.31-6.48l2.16,1.73c-3.24,5.18-8.86,7.99-14.91,7.78-10.37,0-17.5-7.34-17.5-17.93-.43-9.51,6.91-17.5,16.63-17.93h.86c9.51,0,16.85,7.13,16.85,18.15h-28.73ZM1178.77,138.47c-6.7,0-11.02,6.05-11.45,11.88h22.9c-.43-6.91-4.97-11.88-11.45-11.88"></path><path id="Path_22" data-name="Path 22" class="cls-8" d="M1201.88,144.52c0-5.18,4.75-9.29,11.02-9.29,3.67,0,7.34,1.73,9.94,4.32l-1.73,2.16c-2.16-2.16-4.97-3.24-7.78-3.24-4.1,0-6.48,2.38-6.48,5.62,0,7.99,18.15,4.32,18.15,17.07,0,6.26-4.54,10.37-12.96,10.37-4.54,0-8.64-1.94-11.23-5.62l1.94-1.94c2.38,2.81,5.62,4.32,9.29,4.32,5.83,0,8.21-2.81,8.21-6.48-.43-8.64-18.36-4.75-18.36-17.28"></path></g><rect class="cls-8" x="315.88" y="21.31" width="3.24" height="207.39"></rect><g><path class="cls-1" d="M274.12,148.92c0-.12-6.56,4.79-14.89,7.84-8.34,3.31-18.45,4.74-25.73,3.75,3.21-11.07,6.43-22.29,9.66-33.67-.02.65,20.94-2.18,31.84-12.37-2.88,8.02-5.75,15.84-8.62,23.46,2.58,3.87,5.16,7.54,7.75,10.99Z"></path><polygon class="cls-9" points="254.12 144.94 233.49 160.5 240.86 134.89 254.12 144.94"></polygon><g><g><path class="cls-4" d="M173.58,203.78c-12.17,0-23.96-3.92-34.12-11.35l-.62-.45,5.45-7.34.61.45c8.43,6.22,18.19,9.37,29,9.37,17.68,0,33.47-9.17,42.24-24.54,8.74-15.32,8.68-33.41-.17-48.4-8.91-15.09-24.64-24.1-42.07-24.1-9.29,0-14.42,2.03-21.52,4.83-.65.25-1.31.52-1.99.78l-1.04.41V33.85h76.76v8.99h-67.75v47.34c5.02-1.43,10.19-2.15,15.38-2.15,14.76,0,29.43,5.96,40.23,16.35,11.33,10.9,17.57,25.61,17.57,41.42s-6.3,30.9-17.73,41.79c-10.8,10.28-25.47,16.18-40.24,16.18Z"></path><path class="cls-10" d="M225.35,42.08h-67.75v49.13c35.33-10.74,73.19,15.72,73.19,54.6,0,46.65-52.88,73.79-90.87,46l4.54-6.12c8.61,6.35,18.43,9.52,29.45,9.52,38.4,0,61.79-41.82,42.73-74.1-8.75-14.82-24.36-24.47-42.73-24.47-10.28,0-15.51,2.43-23.79,5.66V34.62h75.24v7.47Z"></path></g><g><path class="cls-3" d="M57.74,175.9l.65-1.14c15.4-26.98,27.04-47.25,36.4-63.53q30.6-53.24,30.58-60.51v-.67c0-10.34-5.54-19.94-14.46-25.06-4.42-2.53-9.43-3.87-14.49-3.87-11.28,0-21.58,6.41-26.25,16.34l-.33.71-8.17-4.09.33-.68c6.48-13.26,19.68-21.5,34.45-21.5,13.21,0,25.27,6.75,32.26,18.05,7,11.32,7.73,24.98,1.96,36.53l-57.16,100.42h71.29v9H57.74Z"></path><path class="cls-2" d="M129.98,66.14c11.84-23.7-5.53-53.48-33.54-53.48-14.52,0-27.39,8.03-33.76,21.07l6.8,3.4c7.08-15.05,26.4-21.63,41.81-12.8,9.45,5.43,14.84,15.37,14.84,25.72s1.52,4.86-67.08,125.09h84.98v-7.48h-71.83l57.79-101.52Z"></path></g></g><path class="cls-1" d="M25,168.28c0,.12,6.54-4.02,14.86-6.68,8.33-2.92,18.44-4.37,25.77-4.95-2.51-11.1-5.02-22.06-7.54-32.85.02-.65-21,4.04-31.75,9.73,2.47,4.71,4.94,9.62,7.4,14.73-2.91,6.47-5.82,13.13-8.73,20.01Z"></path><polygon class="cls-9" points="45.71 150.14 65.63 156.65 60.13 132.6 45.71 150.14"></polygon><path class="cls-6" d="M46.81,115.32c22.75-12.86,48.17-12.17,73.27-9.3,27.67,3.16,54.68,10.52,82.67,12.34,17.53,1.14,35.93-2.46,52.46-8.24l-1.11,34.82c-16.54,5.78-34.94,9.38-52.46,8.24-27.99-1.82-55-9.18-82.67-12.34-25.11-2.87-50.52-3.56-73.27,9.3l1.11-34.82Z"></path><g><path class="cls-7" d="M73,131.07c-1.18,1.9-2.78,3.79-6.05,4.78-5.72,1.73-11.18-1.17-12.89-6.84-1.71-5.67,1.43-11.29,6.91-12.95,3.13-.95,5.32-.3,7.2.5l-.4,1.04c-1.81-.76-3.78-1-6.21-.26-4.55,1.38-6.71,5.95-5.2,10.94,1.52,5.01,5.86,7.57,10.36,6.21,2.67-.81,4.25-2.27,5.36-4.03l.93.61Z"></path><path class="cls-7" d="M77.14,133.23l-1.93-19.84,10-.97.13,1.39-7.71.75.7,7.14,7.45-.73.14,1.39-7.45.73.83,8.53,7.74-.75.14,1.39-10.03.98Z"></path><path class="cls-7" d="M91.84,132.2l.29-19.92,2.31.03-.27,18.53,7.09.1-.02,1.4-9.39-.14Z"></path><path class="cls-7" d="M105.51,132.64l1.77-19.85,10.01.89-.12,1.39-7.71-.69-.64,7.15,7.46.66-.12,1.39-7.46-.66-.76,8.53,7.74.69-.12,1.39-10.04-.89Z"></path><path class="cls-7" d="M126.98,135l-6.17-.87,2.79-19.73,4.68.66c4.85.69,5.54,3.89,5.28,5.75-.26,1.86-1.46,3.42-3.9,3.76,2.84.83,4.57,3.03,4.19,5.77-.43,3.04-2.81,5.24-6.87,4.66ZM127.06,125.13l-2.59-.37-1.18,8.31,2.93.41c3.21.46,4.89-.43,5.34-3.58.38-2.71-1.45-4.35-4.5-4.78ZM127.49,116.36l-1.8-.26-1.03,7.3,2.34.33c2.45.35,4.03-.87,4.34-3.06.35-2.45-.55-3.84-3.85-4.31Z"></path><path class="cls-7" d="M148.76,138.61l-4.03-10.11-2.24-.4-1.61,9.11-2.27-.4,3.47-19.62,4.43.78c4.09.72,5.61,3.25,5.09,6.22-.53,3-2.64,4.16-4.59,4.36l4.33,10.51-2.58-.46ZM146.1,119.33l-1.99-.35-1.38,7.79,2.02.36c2.92.51,4.2-1.05,4.6-3.29.36-2.05-.2-3.96-3.25-4.51Z"></path><path class="cls-7" d="M172.62,142.88l-2.36-.41-1.42-6.23-8.47-1.49-3.46,5.38-1.65-.29,12.28-18.74,5.08,21.79ZM161.23,133.45l7.23,1.27-2.05-9.41-5.18,8.14Z"></path><path class="cls-7" d="M184.27,125.84l-2.62,18.35-2.28-.33,2.62-18.35-5.07-.72.2-1.38,12.46,1.78-.2,1.38-5.1-.73Z"></path><path class="cls-7" d="M192.18,145.48l1.98-19.83,2.29.23-1.98,19.83-2.29-.23Z"></path><path class="cls-7" d="M202.29,126.18l16.01,15.74-.34-15.51,1.65-.04.45,20.38-16.04-15.77.34,15.65-1.62.04-.45-20.49Z"></path><path class="cls-7" d="M238.14,143.56c-5.9,1.29-11.08-2.15-12.33-7.88-1.24-5.67,2.21-11.09,7.97-12.35,3.37-.74,5.7.21,7.52,1.33l-.51.99c-1.97-1.17-3.98-1.55-6.57-.98-4.42.97-7.22,5.08-6.03,10.55,1.11,5.06,5.18,7.96,9.79,6.95,4.95-1.08,6.79-5.18,6.2-9.37l-5.23,1.14-.29-1.33,7.15-1.56c1.06,6.18-1.69,11.21-7.67,12.51Z"></path></g><g><path class="cls-8" d="M107.73,228.79l-6.21-10.96h2.39l5.38,9.48,5.78-9.48h1.62l-6.66,11.02v8.91h-2.31v-8.97Z"></path><path class="cls-8" d="M121.54,237.76v-19.93h10.05v1.4h-7.74v7.17h7.49v1.4h-7.49v8.57h7.77v1.4h-10.08Z"></path><path class="cls-8" d="M153.85,237.76h-2.39l-2.48-5.89h-8.6l-2.48,5.89h-1.68l8.85-20.58,8.77,20.58ZM141.01,230.44h7.35l-3.64-8.91-3.7,8.91Z"></path><path class="cls-8" d="M169.07,237.76l-5.72-9.25h-2.28v9.25h-2.31v-19.93h4.5c4.16,0,6.09,2.22,6.09,5.24s-1.88,4.56-3.76,5.1l6.09,9.59h-2.62ZM163.09,219.22h-2.02v7.91h2.05c2.96,0,3.96-1.77,3.96-4.04,0-2.08-.88-3.87-3.99-3.87Z"></path><path class="cls-8" d="M176.23,222.84c0-3.05,2.36-5.35,5.67-5.35,2.53,0,4.19,1.59,4.9,2.51l-.71.83c-.68-.74-1.85-1.94-4.16-1.94s-3.62,1.48-3.62,3.56c0,4.84,9.45,3.02,9.45,9.79,0,3.7-2.73,5.86-6.66,5.86-3.16,0-4.9-1.45-5.92-2.7l.74-.83c.97,1.05,2.53,2.14,5.07,2.14,2.9,0,4.61-1.65,4.61-4.01,0-5.35-9.37-3.3-9.37-9.85Z"></path></g></g></g></g></g></svg> 